<svg width="281" height="59" viewBox="0 0 281 59" fill="none" xmlns="http://www.w3.org/2000/svg">
<mask id="mask0_223_2031" style="mask-type:alpha" maskUnits="userSpaceOnUse" x="226" y="0" width="55" height="58">
<path d="M261.223 57.1164L243.945 34.3357H241.799V57.1164H226.502V0.77002H241.799V22.01H243.78L259.958 0.77002H279.217L257.757 27.8427L280.427 57.1164H261.223Z" fill="black"/>
</mask>
<g mask="url(#mask0_223_2031)">
<rect x="222.426" y="-2.76892" width="62.9563" height="62.9563" fill="#0A0A0A"/>
<path d="M228.434 7.82748C229.742 6.99471 231.1 6.25611 232.446 5.48682" stroke="#79EC84" stroke-width="2.14973" stroke-linecap="round"/>
<path d="M229.104 15.1839C229.864 12.2938 231.833 10.7285 234.639 10.2054C236.317 9.89251 238.099 9.33228 239.804 9.33228C241.386 9.33228 242.75 9.80511 244.318 10.001" stroke="#E9E9E9" stroke-width="2.14973" stroke-linecap="round"/>
<path d="M230.775 27.5563C230.775 26.2325 230.693 24.7375 231.314 23.5252C232.062 22.0642 233.418 20.6621 234.574 19.5219C235.615 18.4951 236.962 17.2269 238.41 16.8097C239.755 16.4222 241.196 16.44 242.534 15.983C243.572 15.6285 245.248 14.4793 246.324 15.0171" stroke="#79EC84" stroke-width="2.14973" stroke-linecap="round"/>
<path d="M231.945 38.0889C233.246 34.6609 235.87 31.4551 238.967 29.5251C240.935 28.2985 242.773 26.8896 244.782 25.6797C245.9 25.0061 246.722 24.9152 247.828 24.5465" stroke="#E9E9E9" stroke-width="2.14973" stroke-linecap="round"/>
<path d="M229.605 47.1175C232.606 44.8415 234.773 41.5712 238.002 39.5568C239.599 38.5606 241.623 37.9164 243.399 37.3369C245.442 36.6702 247.618 35.9407 249.464 34.8197C250.237 34.3504 251.435 34.5782 252.343 34.5782" stroke="#79EC84" stroke-width="2.14973" stroke-linecap="round"/>
<path d="M230.273 52.6344C236.333 48.9169 242.29 45.374 248.776 42.4729C251.23 41.3753 253.754 40.0694 256.457 39.7514C257.575 39.6199 258.404 39.2592 259.532 39.2592" stroke="#79EC84" stroke-width="2.14973" stroke-linecap="round"/>
<path d="M254.684 51.4643C257.206 49.9235 259.75 48.4231 262.291 46.913C263.912 45.9494 265.431 44.7906 267.084 43.885C268.571 43.0699 270.084 42.5787 271.737 42.2688" stroke="#E9E9E9" stroke-width="2.14973" stroke-linecap="round"/>
<path d="M261.705 53.3035C266.706 51.3348 271.649 49.2419 276.585 47.1174" stroke="#79EC84" stroke-width="2.14973" stroke-linecap="round"/>
<path d="M265.422 14.984C266.684 12.1436 269.051 10.0323 270.215 7.10753C271.303 4.37126 271.987 1.49909 273.113 -1.2334" stroke="#E9E9E9" stroke-width="2.14973" stroke-linecap="round"/>
<path d="M256.207 36.6C257.436 33.3385 258.973 30.1676 260.443 27.0145C262.447 22.7145 264.414 18.345 266.796 14.2337C267.739 12.6065 268.839 11.0548 269.917 9.51526" stroke="#79EC84" stroke-width="2.14973" stroke-linecap="round"/>
<path d="M258.357 20.2902C257.713 18.1845 257.715 15.5429 257.762 13.3611C257.83 10.2729 258.98 7.7347 260.029 4.90869" stroke="#E9E9E9" stroke-width="2.14973" stroke-linecap="round"/>
<path d="M254.672 24.9407C259.179 17.9974 262.907 10.8017 266.542 3.37317" stroke="#79EC84" stroke-width="2.14973" stroke-linecap="round"/>
<path d="M262.207 30.2309C261.837 27.5403 261.337 24.8804 260.869 22.2058" stroke="#79EC84" stroke-width="2.14973" stroke-linecap="round"/>
<path d="M241.141 12.3419V27.8906" stroke="#79EC84" stroke-width="2.14973" stroke-linecap="round"/>
<path d="M237.797 33.0732C239.211 30.0135 240.73 27.0213 242.311 24.0449" stroke="#79EC84" stroke-width="2.14973" stroke-linecap="round"/>
<path d="M228.77 35.9153C229.67 31.2364 230.002 25.3659 233.284 21.537" stroke="#79EC84" stroke-width="2.14973" stroke-linecap="round"/>
<path d="M241.809 28.2247C241.665 26.422 241.396 24.6629 241.141 22.8746" stroke="#79EC84" stroke-width="2.14973" stroke-linecap="round"/>
<path d="M251.295 24.9266C252.095 25.7755 253.175 26.6429 253.818 27.6074" stroke="#E9E9E9" stroke-width="2.14973" stroke-linecap="round"/>
<path d="M249.875 14.3617C250.157 17.5063 251.766 20.5817 252.871 23.5077" stroke="#79EC84" stroke-width="2.14973" stroke-linecap="round"/>
<path d="M250.191 20.3539C250.236 20.5975 250.386 20.7739 250.507 20.9846" stroke="#E9E9E9" stroke-width="2.14973" stroke-linecap="round"/>
<path d="M237.734 8.05396C237.646 8.63645 237.613 9.20257 237.576 9.78855" stroke="#79EC84" stroke-width="2.14973" stroke-linecap="round"/>
<path d="M235.368 16.8848C234.683 16.9101 234.001 16.9855 233.318 17.0425" stroke="#79EC84" stroke-width="2.14973" stroke-linecap="round"/>
<path d="M230.48 18.9346L230.322 19.0923" stroke="#79EC84" stroke-width="2.14973" stroke-linecap="round"/>
<path d="M230.164 19.092V20.3536" stroke="#79EC84" stroke-width="2.14973" stroke-linecap="round"/>
<path d="M230.637 28.869V29.0267" stroke="#79EC84" stroke-width="2.14973" stroke-linecap="round"/>
<path d="M233.318 36.7535V37.2266" stroke="#79EC84" stroke-width="2.14973" stroke-linecap="round"/>
<path d="M231.583 44.0074C231.501 44.392 231.391 44.7416 231.268 45.1113" stroke="#79EC84" stroke-width="2.14973" stroke-linecap="round"/>
<path d="M230.321 48.5803C230.182 48.8896 230.103 49.2027 230.006 49.5265" stroke="#79EC84" stroke-width="2.14973" stroke-linecap="round"/>
<path d="M243.883 47.1608C243.932 46.5214 244.084 45.8983 244.198 45.2686" stroke="#79EC84" stroke-width="2.14973" stroke-linecap="round"/>
<path d="M233.634 22.7188C233.493 22.3469 233.509 22.0064 233.477 21.615" stroke="#79EC84" stroke-width="2.14973" stroke-linecap="round"/>
<path d="M252.24 33.1268C252.484 33.9805 252.891 34.8134 253.186 35.6499" stroke="#79EC84" stroke-width="2.14973" stroke-linecap="round"/>
<path d="M255.711 46.8461V47.7922" stroke="#79EC84" stroke-width="2.14973" stroke-linecap="round"/>
<path d="M256.656 51.7338C256.724 51.9463 256.771 52.1483 256.814 52.3645" stroke="#79EC84" stroke-width="2.14973" stroke-linecap="round"/>
<path d="M237.781 54.0453V54.5184" stroke="#79EC84" stroke-width="2.14973" stroke-linecap="round"/>
<path d="M265.33 44.0074C265.229 44.1207 265.217 44.1887 265.172 44.3228" stroke="#79EC84" stroke-width="2.14973" stroke-linecap="round"/>
<path d="M262.334 52.5226C262.251 52.9182 261.974 53.0406 261.703 53.311" stroke="#79EC84" stroke-width="2.14973" stroke-linecap="round"/>
<path d="M261.545 56.1492C261.559 56.3679 261.583 56.345 261.703 56.4646" stroke="#79EC84" stroke-width="2.14973" stroke-linecap="round"/>
<path d="M273.1 54.0453C273.271 54.1974 273.324 54.2281 273.415 54.0453" stroke="#E9E9E9" stroke-width="2.14973" stroke-linecap="round"/>
<path d="M262.665 40.4248C262.504 39.8524 262.442 39.2762 262.35 38.6902" stroke="#79EC84" stroke-width="2.14973" stroke-linecap="round"/>
<path d="M250.066 31.0126V31.1703" stroke="#E9E9E9" stroke-width="2.14973" stroke-linecap="round"/>
</g>
<path d="M112.578 0.77002H127.325V18.4883C127.325 20.2491 127.628 21.689 128.233 22.8078C128.857 23.9267 129.893 24.7521 131.342 25.284C132.809 25.8159 134.809 26.0819 137.34 26.0819C137.798 26.0819 138.541 26.0727 139.568 26.0544C140.614 26.0177 141.742 25.9718 142.952 25.9168C144.163 25.8434 145.273 25.7609 146.281 25.6692C147.309 25.5591 148.033 25.4399 148.455 25.3115V36.8669C147.978 37.032 147.189 37.1787 146.089 37.3071C144.988 37.4172 143.805 37.5181 142.54 37.6098C141.292 37.6831 140.174 37.7473 139.183 37.8023C138.193 37.839 137.578 37.8574 137.34 37.8574C132.387 37.8574 128.05 37.1512 124.326 35.7389C120.603 34.3266 117.714 32.1897 115.66 29.3284C113.605 26.467 112.578 22.8537 112.578 18.4883V0.77002ZM145.594 0.77002H160.451V57.1164H145.594V0.77002Z" fill="black"/>
<path d="M156.398 3.37317V54.0453" stroke="#74B8F6" stroke-width="2.14973"/>
<path d="M150.256 3.37317V54.0453" stroke="#74B8F6" stroke-width="2.14973"/>
<path d="M142.578 27.9415L142.578 35.6191" stroke="#74B8F6" stroke-width="2.14973"/>
<path d="M136.436 27.9415L136.436 36.3869" stroke="#74B8F6" stroke-width="2.14973"/>
<path d="M130.295 26.406L130.295 35.6191" stroke="#74B8F6" stroke-width="2.14973"/>
<path d="M124.152 3.37317V32.548" stroke="#74B8F6" stroke-width="2.14973"/>
<path d="M118.01 3.37317V26.406" stroke="#74B8F6" stroke-width="2.14973"/>
<path d="M220.96 28.9435C220.96 35.2165 219.74 40.5081 217.301 44.8185C214.861 49.1105 211.569 52.3662 207.424 54.5855C203.278 56.7866 198.656 57.8871 193.557 57.8871C188.421 57.8871 183.781 56.7774 179.636 54.558C175.509 52.3203 172.225 49.0555 169.786 44.7634C167.365 40.4531 166.154 35.1798 166.154 28.9435C166.154 22.6706 167.365 17.3881 169.786 13.0961C172.225 8.78578 175.509 5.53009 179.636 3.32906C183.781 1.10969 188.421 0 193.557 0C198.656 0 203.278 1.10969 207.424 3.32906C211.569 5.53009 214.861 8.78578 217.301 13.0961C219.74 17.3881 220.96 22.6706 220.96 28.9435ZM205.223 28.9435C205.223 25.5686 204.773 22.7256 203.874 20.4146C202.994 18.0851 201.683 16.3243 199.94 15.1321C198.216 13.9215 196.088 13.3162 193.557 13.3162C191.026 13.3162 188.889 13.9215 187.147 15.1321C185.422 16.3243 184.111 18.0851 183.212 20.4146C182.332 22.7256 181.892 25.5686 181.892 28.9435C181.892 32.3185 182.332 35.1706 183.212 37.5C184.111 39.8111 185.422 41.572 187.147 42.7825C188.889 43.9747 191.026 44.5709 193.557 44.5709C196.088 44.5709 198.216 43.9747 199.94 42.7825C201.683 41.572 202.994 39.8111 203.874 37.5C204.773 35.1706 205.223 32.3185 205.223 28.9435Z" fill="url(#paint0_linear_223_2031)"/>
<path d="M180.84 12.4707C179.428 12.3295 179.128 10.4371 179.128 9.34209C179.128 7.72321 181.3 7.55486 182.51 7.1859C183.229 6.96677 187.605 6.2296 187.605 7.6721C187.605 7.97499 186.39 8.43946 186.157 8.57051C184.709 9.38511 184.172 6.55173 183.821 5.57932C183.071 3.50497 184.73 3.43108 186.566 3.07105C187.991 2.79182 188.993 2.57755 190.437 2.57755C191.62 2.57755 192.826 2.449 193.968 2.78894C196.435 3.52402 199.536 3.57958 201.472 5.5159C202.111 6.15458 205.428 9.42665 202.804 9.42665C201.701 9.42665 200.419 9.17408 199.908 8.09488C199.417 7.05792 203.699 7.33387 203.892 7.33387C204.397 7.33387 205.284 7.17163 205.795 7.37615C206.888 7.81323 207.888 8.98771 208.913 9.6169C210.214 10.4152 210.787 11.1679 211.238 12.6398C211.694 14.1256 212.366 15.5968 212.602 17.1319C212.683 17.662 213.034 18.6129 212.76 19.1295C212.647 19.3439 211.778 19.7602 211.555 19.6792C210.758 19.3892 210.681 17.3557 211.133 16.7408C212.401 15.0155 216.046 23.4408 216.312 24.816C216.555 26.076 217.054 28.1316 216.502 29.3926C216.141 30.2169 215.413 30.8001 215.001 31.5065C214.662 32.0884 214.006 33.0353 213.416 33.3985C212.707 33.8346 212.612 29.8536 212.612 29.2129C212.612 27.023 214.12 29.6347 214.388 30.3756C214.682 31.1879 214.527 32.2615 214.515 33.1026C214.488 34.9944 214.093 36.6997 213.162 38.3556C212.224 40.0229 211.589 41.9995 209.991 43.1014C209.086 43.7259 208.588 44.9322 207.571 45.3844C207.189 45.5542 206.757 45.7649 206.334 45.7649C206.063 45.7649 205.324 45.9052 205.119 45.7227C204.813 45.4509 204.939 44.0882 205.045 43.7144C205.206 43.1391 206.085 42.0195 206.704 42.742C207.223 43.3479 206.948 45.177 206.672 45.8072C205.301 48.9406 201.598 51.6006 198.798 53.2588C198.278 53.567 192.284 55.8965 191.941 55.2787C191.261 54.0558 190.223 52.5768 190.966 51.092C191.137 50.7497 194.354 49.0928 194.528 49.8765C194.776 50.995 192.093 51.3519 191.346 51.6205C189.631 52.2372 187.944 52.4809 186.326 51.6416C185.203 51.0593 182.78 50.2179 182.362 48.8724C181.929 47.4754 181.349 46.0169 181.231 44.5494C181.162 43.684 180.949 42.8296 181.982 42.7209C182.602 42.6556 182.795 42.5557 182.922 43.3868C183.15 44.8666 180.347 44.8728 179.424 44.5811C178.332 44.2364 177.427 42.9112 176.655 42.1501C175.271 40.7863 173.594 39.641 172.48 38.028C171.151 36.1053 170.567 33.487 170.567 31.1789C170.567 30.3034 170.297 29.3243 171.285 29.0121C172.119 28.7489 173.327 28.0714 174.181 28.0714C174.984 28.0714 175.427 32.5771 174.562 32.4472C173.816 32.3354 172.958 30.9084 172.554 30.3967C171.756 29.3876 170.79 28.1111 170.493 26.8242C169.893 24.2242 171.097 22.0094 172.744 20.1125C173.655 19.0628 175.678 18.0884 177.014 17.6075C177.312 17.5002 178.367 16.6684 178.367 17.3433C178.367 19.0275 177.296 19.6538 175.936 20.4613C174.775 21.1506 173.578 18.6855 173.441 17.7978C173.058 15.3038 174.113 13.2317 176.644 13.2317C177.934 13.2317 179.18 12.6609 180.46 12.6609" stroke="#0A0A0A" stroke-width="2.14973" stroke-linecap="round"/>
<path d="M0 57.1164V45.3409L1.54072 45.1208C3.4116 44.8273 4.96149 44.0203 6.1904 42.6996C7.43765 41.3607 8.39143 39.2422 9.05173 36.3442C9.73039 33.4278 10.1614 29.4568 10.3448 24.4311L11.2253 0.77002H52.0544V57.1164H37.3075V12.6556H25.3118L24.4314 30.3739C24.1013 36.9403 23.2209 42.1769 21.7902 46.0837C20.3595 49.9906 18.186 52.806 15.2696 54.5302C12.3533 56.2543 8.51065 57.1164 3.74175 57.1164H0Z" fill="black"/>
<path d="M5.14844 50.9743C12.826 50.2066 19.5823 47.1355 18.9681 7.21204L44.3042 7.21204V51.7421" stroke="#FFBB54" stroke-width="2.14973"/>
<path d="M39.6992 50.9742H48.9123" stroke="#FFBB54" stroke-width="2.14973"/>
<path d="M67.4412 57.8867V46.0012H70.1925C71.8066 46.0012 73.0814 45.8728 74.0168 45.616C74.9706 45.3409 75.7043 44.864 76.2178 44.1853C76.7497 43.4883 77.1991 42.5162 77.566 41.269L78.1162 39.6182L56.9863 0.77002H72.6136L84.3892 23.6607L93.4134 0.77002H108.821L89.4515 44.7906C88.3877 47.1017 87.1221 49.2569 85.6547 51.2561C84.1874 53.2371 82.3624 54.842 80.1797 56.0709C77.997 57.2815 75.2916 57.8867 72.0634 57.8867H67.4412Z" fill="black"/>
<path d="M63.0762 4.36568C64.9468 4.14948 66.8163 3.92318 68.6188 4.52404C68.9654 4.63956 69.3796 4.58495 69.7396 4.58495C71.3884 4.58495 69.4615 5.58951 68.8442 5.83357C68.0433 6.15019 67.3514 6.27767 66.6454 6.78983C66.1434 7.15406 65.7432 7.52813 65.0983 7.5451C64.9376 7.54933 64.8647 7.56637 64.7207 7.63037C64.5282 7.71593 64.3742 7.71116 64.1786 7.82528C63.8603 8.01094 64.5593 8.17892 64.6415 8.20291C65.815 8.54516 67.0334 8.71879 68.2108 9.06172C69.6518 9.48144 70.846 9.39376 72.2855 9.52462C73.6046 9.64454 72.1501 9.84347 71.5912 9.84744C70.7974 9.85307 69.8835 9.89112 69.1548 10.2372C68.3872 10.6019 67.3827 10.8753 66.7489 11.3823C66.4293 11.638 69.4797 12.5547 69.7517 12.6249C70.794 12.8937 71.8498 13.5229 72.9433 13.4654C73.207 13.4515 73.5277 13.4144 73.7595 13.5689C73.8898 13.6558 73.4488 13.6116 73.2966 13.6481C72.6617 13.8005 71.9757 13.8946 71.4328 14.2816C70.8779 14.6771 70.4472 15.2231 69.9832 15.7129C69.756 15.9528 69.4994 16.0232 69.2706 16.2063C69.1406 16.3102 69.4664 16.3527 69.5081 16.3646C70.8196 16.7393 72.1601 16.9759 73.5037 17.2052C74.0376 17.2963 74.7511 17.2756 75.27 17.4366C75.7323 17.5801 76.1619 17.8242 76.6283 17.9543C77.6123 18.229 76.3583 18.0606 75.9888 18.0883C75.1023 18.1548 74.2534 18.4263 73.3697 18.5147C72.4499 18.6067 71.0795 18.8921 71.0795 20.0435C71.0795 20.6991 71.9444 20.6791 72.4743 20.7988C73.2387 20.9714 73.9546 21.1741 74.6975 21.4322C75.4759 21.7026 76.5966 22.3741 77.4384 22.1266C77.6848 22.0541 77.7841 22.0266 78.0109 22.1022C78.3332 22.2097 77.3484 22.0467 77.2678 22.0413C75.9556 21.9538 74.7147 21.9311 73.4915 22.3702C73.1936 22.4771 72.7241 22.7699 72.7241 23.1133C72.7241 23.936 74.2233 24.2792 74.7949 24.5264C75.835 24.9761 76.7857 24.9251 77.8769 24.9771C78.2322 24.994 78.5986 25.1964 78.9245 25.1964C79.592 25.1964 81.5453 25.5699 80.9223 25.3304C80.3764 25.1204 79.2683 25.5063 78.754 25.6836C78.0804 25.9159 77.3847 26.1242 76.7197 26.378C75.9863 26.6578 75.4248 27.0744 75.0264 27.7119C74.6552 28.3057 75.3964 28.6495 75.873 28.8752C78.0416 29.9024 80.5419 30.9503 82.908 31.3725C84.3133 31.6232 85.8985 31.8647 87.3299 31.811C87.7972 31.7935 88.2368 31.6648 88.7064 31.6648C89.0353 31.6648 89.3642 31.6648 89.6931 31.6648C89.9105 31.6648 90.1019 31.7724 89.8271 31.7136C89.4221 31.6268 88.9993 31.7217 88.5968 31.6161C87.6234 31.3608 86.977 32.0857 86.0569 32.3775C85.6606 32.5031 85.3632 32.6933 85.0337 32.9378C84.4231 33.3908 83.6921 33.6559 82.981 33.9063C82.2131 34.1766 81.3057 34.2124 81.0807 35.1122C80.9048 35.8158 81.3636 36.0361 81.9821 36.2939C84.4244 37.3115 87.1506 37.0804 89.6871 37.6399C90.4748 37.8137 90.5008 37.8094 89.6871 37.7496C88.6894 37.6762 87.69 37.6948 86.6904 37.6948C85.8189 37.6948 85.5605 37.6757 84.9788 38.2186C84.528 38.6393 83.8766 38.8712 83.4013 39.2906C83.1421 39.5192 82.842 39.6757 82.5547 39.8631C82.2937 40.0333 82.2047 40.3289 81.9943 40.5453C81.6121 40.9384 81.114 41.2635 80.7518 41.666C80.5748 41.8626 80.7897 42.1839 80.965 42.2446C82.497 42.7749 84.0752 43.0211 85.6793 43.2252C85.9605 43.261 86.2329 43.2696 86.5137 43.2862C87.4423 43.3408 84.6866 43.6362 83.7728 43.81C81.2722 44.2855 78.8314 44.4217 76.5978 45.7712C76.2843 45.9606 76.1211 46.2477 75.8487 46.4656C75.6839 46.5974 76.3601 46.8492 76.3847 46.8615C77.3609 47.3496 78.4419 47.5892 79.4971 47.8421C80.9414 48.1883 82.489 48.4662 83.8581 49.0481C84.0081 49.1118 84.9141 49.1876 84.6012 49.2552C83.1651 49.5652 81.6854 49.6524 80.2402 49.913C77.8474 50.3445 75.3545 50.9856 73.053 51.7768C72.5877 51.9367 71.8082 52.1071 72.4073 52.5564C74.0719 53.8048 76.1609 53.263 78.0962 53.263" stroke="#FF5454" stroke-width="2.14973" stroke-linecap="round"/>
<path d="M102.299 4.22046C100.63 4.22669 98.9558 4.20542 97.2884 4.29637C96.8062 4.32268 96.3144 4.35753 95.866 4.55208C95.8178 4.57303 95.1373 4.87935 95.2827 5.01155C95.5934 5.29398 96.223 5.41094 96.6212 5.43507C97.6172 5.49543 98.5271 5.55536 99.5179 5.74671C100.21 5.88032 100.903 6.00362 101.599 6.1103C101.89 6.15484 102.305 6.15044 102.57 6.30208C102.653 6.3492 102.4 6.3951 102.307 6.40995C101.823 6.4866 101.339 6.5487 100.852 6.60973C99.4504 6.78568 98.1412 7.1818 96.785 7.55265C96.0886 7.74308 95.3323 7.87962 94.6754 8.19191C94.3877 8.32871 94.21 8.49802 94.3318 8.83917C94.432 9.1196 94.7853 9.23516 95.031 9.3386C95.9551 9.72771 96.8906 10.0373 97.8478 10.3335C98.1443 10.4252 98.4902 10.5008 98.7707 10.6411C98.8108 10.6611 97.9871 10.6931 97.9197 10.6931C96.5345 10.6931 95.1503 10.6689 93.7724 10.8369C92.9807 10.9334 92.0202 11.0217 91.2873 11.3723C91.0634 11.4793 91.105 11.9392 91.0955 12.1314C91.0098 13.8591 92.5787 14.8508 94.14 14.9202C95.3716 14.975 96.6111 14.9362 97.8438 14.9362C98.2546 14.9362 98.8215 15.0365 99.2222 14.9202C99.2616 14.9088 99.3341 14.8754 99.3341 14.8243C99.3341 14.6437 98.8139 14.6254 98.7587 14.6206C97.3939 14.5001 95.862 14.4494 94.4996 14.6246C93.4104 14.7646 92.5088 15.2644 91.9266 16.1908C91.7629 16.4511 91.6357 16.7332 91.4671 16.9898C91.3056 17.2356 90.9773 17.508 90.9357 17.8129C90.9114 17.9907 91.0425 18.0258 91.1914 18.0766C92.3203 18.4615 93.5117 18.5886 94.6994 18.604C95.3171 18.612 95.9355 18.604 96.5533 18.604C97.0468 18.604 95.5728 18.7292 95.0909 18.8357C93.7756 19.1264 92.496 19.5367 91.1994 19.8985C90.3614 20.1324 89.4654 20.331 88.6543 20.6497C88.2936 20.7914 87.7713 21.4893 87.7713 21.8683C87.7713 22.0702 87.9859 22.1681 88.1549 22.2159C89.0241 22.4615 89.9927 22.4653 90.8837 22.6314C91.8554 22.8125 92.8773 23.0342 93.8683 23.0629C94.0135 23.0671 94.4313 23.0053 94.3038 23.0749C94.1169 23.1768 93.8509 23.2193 93.6526 23.2787C93.1367 23.4331 92.6459 23.6338 92.1423 23.822C91.3336 24.1242 90.4655 24.2821 89.6691 24.6091C89.3355 24.7462 88.5849 24.962 88.4186 25.3363C88.243 25.7314 87.7589 25.8737 87.5276 26.2592C87.0272 27.0932 91.7488 27.662 92.2662 27.7415C94.2979 28.0541 88.1609 28.0199 86.1252 28.3049C84.8236 28.4871 83.5559 28.5608 82.2816 28.9202C81.5334 29.1312 81.8078 29.5771 82.4574 29.8511C83.9403 30.4767 85.7385 30.3985 87.3118 30.3985C88.0261 30.3985 88.9181 30.0658 89.6012 30.2307C90.3435 30.4099 90.9617 30.9366 91.7508 31.0418C91.9517 31.0686 92.1716 31.0458 92.374 31.0458" stroke="#FF5454" stroke-width="2.14973" stroke-linecap="round"/>
<defs>
<linearGradient id="paint0_linear_223_2031" x1="193.557" y1="0" x2="193.557" y2="57.8871" gradientUnits="userSpaceOnUse">
<stop stop-color="#EBEBEB"/>
<stop offset="1" stop-color="#CDCDCD"/>
</linearGradient>
</defs>
</svg>
